<?xml version="1.0" encoding="iso-8859-1"?>
<!-- Uploaded to: SVG Repo, www.svgrepo.com, Generator: SVG Repo Mixer Tools -->
<!DOCTYPE svg PUBLIC "-//W3C//DTD SVG 1.1//EN" "http://www.w3.org/Graphics/SVG/1.1/DTD/svg11.dtd">
<svg fill="#000000" version="1.1" id="Capa_1" xmlns="http://www.w3.org/2000/svg" xmlns:xlink="http://www.w3.org/1999/xlink" 
	 width="800px" height="800px" viewBox="0 0 31.934 31.934"
	 xml:space="preserve">
<g>
	<g>
		<circle cx="26.044" cy="5.088" r="2.983"/>
		<path d="M28.543,9.218l-2.499,3.449l-2.47-3.216l-2.957,3.636l-2.373-2.108c-0.498-0.443-1.26-0.398-1.706,0.1
			c-0.441,0.499-0.399,1.263,0.1,1.707l3.312,2.945c0.222,0.199,0.506,0.306,0.801,0.306c0.031,0,0.057-0.001,0.089-0.005
			c0.328-0.026,0.642-0.184,0.851-0.44l1.321-1.631v4.492c0,0.562,0,1.088,0.267,1.537v9.79c0,0.669,0.619,1.177,1.285,1.177
			c0.67,0,1.287-0.436,1.287-1.236h0.321c0,0.801,0.556,1.236,1.224,1.236c0.664,0,1.225-0.508,1.225-1.177v-9.79
			c0.268-0.452,0.268-0.975,0.268-1.537v-3.901c0.534,1.078,0.545,2.504,0.539,4.309c-0.001,0.669,0.625,1.246,1.295,1.246h0.002
			c0.665,0,1.206-0.571,1.209-1.24C31.951,12.669,29.941,10.18,28.543,9.218z"/>
		<path d="M27.435,8.382l-0.706,0.305c-0.148-0.248-0.412-0.414-0.722-0.414c-0.312,0-0.576,0.169-0.718,0.419L24.58,8.394
			c-0.104-0.044-0.238-0.032-0.33,0.029c-0.096,0.062-0.167,0.167-0.167,0.28v0.886c0,0.106,0.065,0.206,0.149,0.269
			c0.086,0.062,0.205,0.082,0.308,0.053c0.282-0.087,0.638-0.192,0.836-0.252c0.153,0.176,0.381,0.288,0.629,0.288
			c0.262,0,0.491-0.12,0.647-0.305c0.197,0.059,0.541,0.165,0.819,0.25c0.103,0.029,0.167,0.011,0.254-0.052
			c0.085-0.062,0.095-0.162,0.095-0.269V8.69c0-0.112-0.018-0.215-0.11-0.278S27.539,8.34,27.435,8.382z"/>
		<path d="M0.05,31.055h18.426V20.908h0.571c0.717,0,1.298-0.581,1.298-1.299v-0.342c0-0.717-0.581-1.299-1.298-1.299H0L0.05,31.055
			z"/>
		<path d="M14.736,9.967c0-0.935-0.758-1.693-1.693-1.693H3.88c-0.935,0-1.693,0.758-1.693,1.693v7.118h12.55L14.736,9.967
			L14.736,9.967z M12.334,15.75H4.856v-2.403h7.478V15.75z M12.867,12.012H4.055v-1.069h8.812V12.012z"/>
		<path d="M5.123,2.508c0-0.415,0.323-0.828,0.738-0.828h5.246c0.414,0,0.692,0.413,0.692,0.828v5.046h1.068V1.787
			c0-0.545-0.47-0.908-1.015-0.908H5.076c-0.523,0-1.021,0.346-1.021,0.869v5.807h1.068V2.508z"/>
		<path d="M10.703,3.015H6.352c-0.267,0-0.483,0.268-0.483,0.536c0,0.266,0.216,0.533,0.483,0.533h4.351
			c0.267,0,0.483-0.268,0.483-0.533C11.186,3.282,10.969,3.015,10.703,3.015z"/>
		<path d="M10.703,4.618H6.352c-0.267,0-0.483,0.266-0.483,0.534c0,0.266,0.216,0.534,0.483,0.534h4.351
			c0.267,0,0.483-0.268,0.483-0.534C11.186,4.884,10.969,4.618,10.703,4.618z"/>
		<path d="M10.703,6.22H6.352c-0.267,0-0.483,0.268-0.483,0.534c0,0.268,0.216,0.534,0.483,0.534h4.351
			c0.267,0,0.483-0.266,0.483-0.534C11.186,6.488,10.969,6.22,10.703,6.22z"/>
	</g>
</g>
</svg>